<svg viewBox="0 0 32 32" xmlns="http://www.w3.org/2000/svg">
    <path d="m20.7608746 6.77906266c-.0432359.02168953-.0927929.04263114-.1625773.05559499-.3104898.43304258-.123134.38218438-.6705366.74392576.0012642.72572651.0222501.80375894.1949411 1.44671622.0042983.01545691.0020227.0304152-.0065739.04387766-.0083438.01346247-.020733.02243744-.0366621.0256784-.1322362.02792215-.3223733.07603799-.4326124.09648099.0035398.02293605.0558781.4337905-.0032869.73968758-.0925401.48041054-1.2520728 1.53172914-1.5289346 1.58557904-.3830554.0742929-.8111167-.2592771-1.480389-.54872-.1845746-.0800269-.8035314-.4811585-1.1276747-.5878609-.2687709-.088254-.5383003.5569471-.204549.7299646.1554977.0805255.4035356.1889731.4819165.389165.2321088.5933456-.036662 2.8817151-.5150388 3.3419319-.227052-.0017452-.4182004-.2071724-.5868459-.1535718-.3011347.1625468-.1104919 1.0702658 0 1.2283251 1.8525722 1.8792602 1.6325998 3.2708801 2.4191907 4.3099828.3587826 0 .1233869.3747052.3951919.8149776.0725656.2261196-.0207331.6100491-.0599236.7556431v.5669193c-.0197216.0590853-.0396961.1179212-.0599235.1770065v.4961167c-.0548667.2415764-.1155487.5654235-.1673813.7910444-.1097333.4761723.3147881.8461408.0596707 1.2991277 0 .2784736.0010114.2228786-.1676342.4487488 0 .4322947-.1031594 1.3432547 0 1.6651073.0718071.2238758.895313 1.1727302 1.1018848 1.2634771.4978456.2186404 1.2318455.1715218.9939213.9448655-1.4573804.4410204-2.3878384-.2488062-3.1643157-.2600249l-.0366621.1316329c-.497087.0007479-.8945544-.1199156-1.0027707-.1550676-.0007585-.1326302.1608074-1.1482983.2156741-1.3108451.055878-.0867581.1120089-.1732669.1676341-.2597757.0604292-.1730175-.0614406-1.4417301-.0718071-1.7832778-.3104898-.224873-.3711718-.9104614-.3711718-1.2871611-.089506-.2914374-.0897589-.6369739-.1077106-1.015668-.0085966-.1775051-.1160544-.438278-.04804-.6611566.0462701-.152076.2202253-.2183911.2634612-.3425449 0-.1416052 0-.2834596 0-.4250648.0819208-.447253.0563838-.6534281-.2154212-.9209322-.6814088.0087256-.775466.040886-1.1499247-.531518-.1163073-.1780037-1.069521-1.6608692-1.1615555-1.7005086-.7931648-.3412984-.6353915-.2084189-.9822905-.8147284-.0141592.0002493-.2252821.0695561-.4118794.3447887-.2836886.4180843-.7860853 1.7767959-.9294466 2.2532175-.0798981.265759.0005056.5594401-.1195942.779327-.08697762.1590565-.37016049.210164-.43109537.318861-.27812603.4936236-.06978435.4552307-.59898234.8027617-.09532137.1211622-.09810263.3029054-.16763414.4487488-.03994901.0553457-.07989802.110442-.11984703.1655384-.08900033.1884745.09456285.5317673.05992351.6494392-.09152875.3093874-.21238715.6215171-.33526828.9092149-.24272818.5676672-.21112295 1.3213159-.45562101 1.6703427-.12288114.1752614-.41997031.0042382-.64626376.1483364-.01314777.1219101-.37268888.932151-.44297891 1.1572733v1.2871611c.06750877.2168952.25309469.423569.19772232.6980536-.05865931.2924347-1.09025404.2876979-1.65004588.2084189-.37471162-.0533512-.4869734-.3255921-.48090519-.6404642.00733241-.3717136.76965058-2.7864807.72338052-2.9467837-.57875499-.6419601.15499205-1.302618.37142467-1.901199.10543505-.2916867.04070754-.6988016.15575058-.9683002.20353768-.3659795.40707537-.7322084.6108659-1.098188.37117182-.3457858.20581326-.3632372.40707537-.6731231.17446087-.2687507.38608949-.4499954.2634612-.861847-.24677364-.8286894.28798686-2.0029154.32338472-2.8697485-.09481569-.0984754-.41643052-.0673123-.45688521-.3315755-.08192076-.5379999.20682462-1.4908432.38482528-1.5813408.0791395-.0403874.16940404-.0044875.23969407-.047368-.00025284-.4036246-.40707537-2.6496122-.09784979-2.7632953.19064275-.0700546.62881767-.1069518.713014-.1445968-.00505683-.0957331-.07180708-.3001631-.15221079-.3111325-.13577607-.0186979-.41440778-.0705533-.63615008-.1209129-.68065025-.1548183-.05082121-2.8016882-.04247743-2.81240831.18735581-.24382017 1.05637323.08501297 1.16180828-.33082757.29051528-.36548096-.22401788-1.77180979.767375-3.50323218.33476259-.58486925.97596949-1.17547251 1.72362289-.92492111.2508191.08376644.0986083.4390259.5390588.05908526.011125-.22163204-.0932987-.40736418-.1557506-.59060326-.73223-2.15374487 1.7484014-3.32074101 3.485172-2.09017212.1951939.07803243.3087199.11667468.4551153.22437439.0955742.48764035.5858346 1.35522133.0955742 1.92488298-.2002507.04213253-.446013.15282389-.5987294.25977569-.0025285.19695085.0232614.3781955.0599235.4958674.0328694.10595458.0955742.1478378-.0659917.21265707-.0202274.00797775-.0116308.07404355-.0005057.09872473.4053054.07878034.8374122-.07379424 1.1084586-.18149395h.3236376v-.40187947h.1544864v-.31512137h.1544863v.54448186h.4037884v.17251898h5.9865364v.306645h.2649783v-1.12162266h.2225008v.91195726h.5094763v.52079789h1.5848127v-.15481833h.2639669v.06806023h.7486647v.4340398h-.7486647v.06806023h-.2639669v-.15481833h-1.5848127v.15506764c-.2326145 0-.465229 0-.6978435 0v-.10495736h-.2991119v.31512137z" fill="currentColor" fill-rule="evenodd"/>
</svg>